<?xml version="1.0" encoding="UTF-8"?>
<svg xmlns="http://www.w3.org/2000/svg" height="580" width="580" class="pyqrcode"><path transform="scale(20)" stroke="#000" class="pyqrline" d="M4 4.5h7m4 0h2m1 0h7m-21 1h1m5 0h1m1 0h1m1 0h1m1 0h1m1 0h1m5 0h1m-21 1h1m1 0h3m1 0h1m1 0h1m2 0h1m2 0h1m1 0h3m1 0h1m-21 1h1m1 0h3m1 0h1m1 0h2m2 0h1m1 0h1m1 0h3m1 0h1m-21 1h1m1 0h3m1 0h1m1 0h2m1 0h1m2 0h1m1 0h3m1 0h1m-21 1h1m5 0h1m1 0h1m1 0h2m2 0h1m5 0h1m-21 1h7m1 0h1m1 0h1m1 0h1m1 0h7m-11 1h1m1 0h1m-11 1h1m2 0h4m4 0h1m1 0h5m-17 1h1m3 0h2m3 0h2m3 0h1m1 0h2m-18 1h6m4 0h1m1 0h2m3 0h1m-20 1h2m6 0h1m1 0h1m1 0h1m4 0h2m-19 1h6m1 0h1m2 0h1m1 0h2m1 0h4m-12 1h4m1 0h2m2 0h1m2 0h1m-21 1h7m1 0h1m2 0h1m1 0h5m1 0h2m-21 1h1m5 0h1m1 0h1m1 0h1m1 0h1m1 0h1m3 0h2m-20 1h1m1 0h3m1 0h1m2 0h1m1 0h2m1 0h2m2 0h1m1 0h1m-21 1h1m1 0h3m1 0h1m4 0h1m1 0h1m1 0h2m-17 1h1m1 0h3m1 0h1m1 0h2m2 0h1m2 0h3m1 0h2m-21 1h1m5 0h1m3 0h5m2 0h1m2 0h1m-21 1h7m4 0h1m1 0h1m2 0h5"/></svg>
